<svg version="1.0" xmlns="http://www.w3.org/2000/svg" width="749.333" height="749.333" viewBox="0 0 562 562"><path d="M257.5.6c-2.2.2-8.9 1.1-15 2C125.8 18.8 30.2 108.5 6.6 224c-8 39.3-7.3 83.7 1.8 122.1 9.2 38.7 26 73.8 51.5 107.4 9.7 12.9 36.7 39.9 49.6 49.6 40.9 31 82.4 48.6 133.5 56.6 16.4 2.5 60.6 2.5 77 0 53.5-8.3 102.3-30.1 141.5-63 52.4-44.1 87-105.6 97.7-174.2 1.9-11.9 2.2-18.1 2.2-41.5s-.3-29.6-2.2-41.5c-9.2-59-35.4-111.8-76.2-153.9-43.7-45.1-98.5-73.2-162-83.1C310.9.9 267.2-.4 257.5.6z"/></svg>